<svg width="630" height="630" viewBox="0 0 630 630" fill="none" xmlns="http://www.w3.org/2000/svg">
<path d="M0 0H630V630H0V0Z" fill="url(#paint0_radial)"/>
<path d="M149.045 379.839C149.045 379.839 148.461 385.841 152.515 390.396C156.568 394.95 229.292 450.479 236.964 452.998C244.636 455.523 245.254 450.579 245.254 450.579L149.045 379.839Z" fill="#99938F"/>
<path d="M513.066 409.265C513.066 409.265 516.713 407.359 514.267 415.408C511.962 422.985 282.005 451.553 246.724 453.4C245.386 453.468 241.788 453.96 239.237 453.611C237.64 453.396 238.597 445.982 238.597 445.982L513.066 409.265V409.265Z" fill="#A39D98"/>
<path d="M117.137 224.146C117.22 224.078 149.868 380.893 149.868 380.893C149.868 380.893 146.276 382.296 143.505 377.95C137.523 356.151 112.856 234.414 113.168 230.756C113.5 226.789 116.404 224.711 117.137 224.146V224.146Z" fill="#99938F"/>
<path d="M116.083 228.585C120.594 255.503 149.027 382.337 149.027 382.337C149.027 382.337 234.852 447.509 238.141 448.544C241.43 449.575 244.748 448.654 246.352 448.509C247.957 448.364 503.946 413.139 506.964 412.477C510.582 411.684 513.49 410.633 514.584 408.011C516.22 404.101 431.775 350.734 431.487 349.944C427.307 338.312 411.151 217.399 409.359 208.823C407.561 200.25 405.3 200.327 398.775 199.766C392.25 199.205 149.315 217.231 119.15 222.664C116.855 223.084 115.61 225.762 116.083 228.585V228.585Z" fill="#B2AAA3"/>
<path d="M137.968 241.462C141.102 258.243 159.58 350.844 160.997 354.722C162.414 358.599 166.809 357.228 169.688 356.823C172.567 356.423 402.615 332.966 405.529 332.114C408.442 331.263 410.991 331.182 410.685 328.804C410.378 326.426 395.523 222.583 395.218 220.448C394.91 218.314 391.231 217.25 388.472 217.55C385.906 217.832 170.867 232.652 140.882 237.569C138.596 237.944 137.661 239.823 137.968 241.462V241.462Z" fill="#44403C"/>
<path d="M164.214 378.778C164.214 378.778 418.388 350.622 422.241 349.672C426.091 348.72 427.578 351.401 427.578 351.401L166.658 380.998L164.214 378.778V378.778Z" fill="#7F7B75"/>
<path d="M195.267 389.094C195.757 387.511 214.602 386.392 216.535 386.843C218.469 387.294 225.236 393.147 223.302 393.598C221.369 394.047 203.479 396.839 200.584 395.399C197.69 393.962 194.778 390.676 195.267 389.094V389.094Z" fill="#99938F"/>
<path d="M230.441 384.423C228.784 385.446 235.141 391.396 237.998 390.446C240.856 389.509 260.225 389.753 260.126 387.755C260.028 385.76 258.866 381.818 254.038 382.056C249.21 382.294 231.85 383.552 230.441 384.423V384.423Z" fill="#99938F"/>
<path d="M268.877 380.028C266.509 381.054 271.938 386.178 274.813 386.09C277.688 386.007 295.874 384.51 295.338 382.602C294.805 380.702 293.322 379.303 286.597 379.02C279.873 378.738 268.877 380.028 268.877 380.028V380.028Z" fill="#99938F"/>
<path d="M301.734 376.009C298.32 376.573 307.237 383.467 310.649 382.904C314.06 382.342 333.091 380.51 329.624 378.053C326.161 375.593 326.196 374.763 322.578 374.318C318.965 373.875 301.734 376.009 301.734 376.009V376.009Z" fill="#99938F"/>
<path d="M335.925 372.65C335.925 372.65 340.326 379.434 342.775 378.951C345.221 378.467 363.815 377.497 362.348 375.559C360.876 373.62 358.432 370.228 354.026 370.712C349.624 371.195 335.925 372.65 335.925 372.65V372.65Z" fill="#99938F"/>
<path d="M370.566 369.15C370.566 369.15 372.925 374.895 377.171 374.369C381.419 373.846 397.461 374.369 396.989 371.759C396.517 369.145 393.213 366.012 388.495 366.534C383.778 367.061 370.566 369.15 370.566 369.15V369.15Z" fill="#99938F"/>
<path d="M402.54 364.57C400.745 365.05 405.372 369.808 408.4 370.563C411.087 370.245 429.474 369.499 428.316 367.742C427.156 365.989 425.37 362.448 421.108 362.674C416.857 362.897 402.54 364.57 402.54 364.57V364.57Z" fill="#99938F"/>
<path d="M210.735 399.751C209.768 402.17 217.018 407.491 219.435 407.491C221.852 407.491 247.47 405.072 247.47 405.072C247.47 405.072 246.02 399.751 239.736 398.784C233.453 397.816 210.735 399.751 210.735 399.751V399.751Z" fill="#99938F"/>
<path d="M251.82 395.881C250.37 396.365 256.171 404.105 260.038 403.621C263.904 403.137 282.433 402.649 283.239 400.718C284.045 398.787 280.822 392.495 274.055 393.463C267.288 394.43 251.82 395.881 251.82 395.881Z" fill="#99938F"/>
<path d="M288.073 390.56C288.073 390.56 291.939 398.3 295.323 397.816C298.706 397.332 316.591 397.332 316.591 395.881C316.591 394.43 313.207 388.141 309.824 388.625C306.44 389.109 288.073 390.56 288.073 390.56Z" fill="#99938F"/>
<path d="M322.874 388.269C322.874 388.269 327.708 395.399 330.125 395.399C332.542 395.399 348.976 393.873 348.976 393.873C348.976 393.873 346.559 385.216 341.725 385.727C336.892 386.234 322.874 388.269 322.874 388.269Z" fill="#99938F"/>
<path d="M354.293 384.355C352.843 384.866 358.16 393.027 361.543 392.007C364.927 390.988 376.044 391.497 377.494 389.457C378.944 387.418 377.011 383.335 373.144 382.824C369.277 382.314 354.293 384.355 354.293 384.355Z" fill="#99938F"/>
<path d="M383.778 380.315C380.878 380.775 389.095 389.088 392.478 388.625C395.862 388.165 408.429 386.321 410.362 385.394C412.296 384.467 407.946 378.467 405.529 378.467C403.112 378.467 383.778 380.315 383.778 380.315Z" fill="#99938F"/>
<path d="M414.712 376.259C413.746 378.043 419.546 384.721 423.413 384.276C427.28 383.83 445.647 381.603 448.064 380.27C450.481 378.937 439.364 372.701 436.464 373.146C433.563 373.591 414.712 376.259 414.712 376.259V376.259Z" fill="#99938F"/>
<path d="M436.947 388.939C436.947 388.939 442.748 394.827 445.648 394.434C448.548 394.045 457.248 392.865 459.182 391.686C461.115 390.512 455.315 386.584 452.898 386.191C450.481 385.8 435.497 387.369 436.947 388.939Z" fill="#99938F"/>
<path d="M415.772 392.377C414.765 393.575 419.208 397.607 422.011 397.777C424.813 397.944 434.151 398.503 435.677 396.502C437.202 394.502 430.449 389.908 427.62 390.158C424.795 390.405 415.772 392.377 415.772 392.377V392.377Z" fill="#99938F"/>
<path d="M390.222 395.425C390.222 395.425 392.677 401.202 396.113 401.202C399.549 401.202 409.854 400.759 410.836 399.424C411.82 398.089 411.329 394.979 407.893 394.089C404.458 393.203 390.222 395.425 390.222 395.425V395.425Z" fill="#99938F"/>
<path d="M322.391 403.849C322.391 403.849 323.841 411.722 331.091 410.412C338.342 409.099 384.609 403.381 386.486 402.897C387.977 402.514 382.076 397.085 379.665 396.605C377.252 396.125 322.391 403.849 322.391 403.849V403.849Z" fill="#99938F"/>
<path d="M299.52 406.964C297.117 408.083 302.337 413.142 304.793 412.417C307.248 411.699 318.033 412.115 318.719 409.836C319.406 407.556 316.602 405.201 312.492 404.905C308.383 404.615 299.52 406.964 299.52 406.964Z" fill="#99938F"/>
<path d="M276.311 408.619C276.311 408.619 277.121 415.875 280.766 415.875C284.41 415.875 294.534 414.423 295.75 413.94C296.966 413.456 296.154 408.135 292.51 407.168C288.865 406.2 276.311 408.619 276.311 408.619Z" fill="#99938F"/>
<path d="M227.844 413.827C227.844 413.827 230.023 419.479 234.82 419.775C239.617 420.073 248.71 420.168 251.02 418.491C253.334 416.815 249.748 411.751 245.904 411.405C242.064 411.066 227.844 413.827 227.844 413.827V413.827Z" fill="#99938F"/>
<path d="M253.17 411.712C251.915 412.347 256.96 419.063 260.803 418.235C264.645 417.407 270.509 417.525 273.057 416.795C275.606 416.062 271.17 408.762 267.974 409.539C264.778 410.315 253.17 411.712 253.17 411.712Z" fill="#99938F"/>
<path d="M328.675 416.682C327.592 418.845 338.825 430.71 343.659 429.742C348.492 428.775 402.145 423.454 404.562 421.519C406.979 419.584 391.511 408.942 389.095 408.942C386.678 408.942 330.125 413.779 328.675 416.682Z" fill="#99938F"/>
<path d="M338.029 204.404L317.596 206.322L308.543 209.914C308.543 209.914 315.968 208.675 325 208.701C334.032 208.727 344.322 213.315 350.164 215.569C368.282 222.556 399.159 236.451 401.612 237.033C420.013 241.403 473.008 263.783 474.786 264.084C479.643 264.907 509.63 277.628 527.385 285.065C533.261 286.41 533.67 278.431 526.068 275.245C517.185 271.659 516.092 271.211 511.865 269.937C505.185 267.925 480.638 257.348 480.638 257.348L475.418 247.537L471.092 244.163L473.709 254.992L431.171 240.536L384.239 222.29L338.029 204.404Z" fill="#7A402D"/>
<path d="M329.831 221.556C329.831 221.556 323.835 230.761 342.063 238.602C360.291 246.443 370.377 256.968 380.922 239.64C391.468 222.312 399.815 212.934 388.267 207.104C376.719 201.275 369.86 198.72 362.099 195.258C354.338 191.795 348.914 191.777 342.01 201.882C335.107 211.987 329.831 221.556 329.831 221.556V221.556Z" fill="#E6CDB1"/>
<path d="M334.68 231.342C336.42 231.715 350.597 229.564 352.74 224.364C354.888 219.159 361.621 235.662 370.164 228.933C378.706 222.206 385.561 222.587 385.561 222.587C385.561 222.587 381.482 240.992 375.071 247.213C368.661 253.431 331.711 230.708 334.68 231.342V231.342Z" fill="#E0B890"/>
<path d="M387.762 247.625C385.75 254.311 388.272 256.491 399.464 261.233C410.655 265.974 429.215 282.137 436.867 265.159C444.52 248.181 453.614 231.933 443.873 226.111C434.133 220.289 412.143 202.848 405.781 212.776C399.419 222.705 389.773 240.938 387.762 247.625Z" fill="#E6CDB1"/>
<path d="M393.396 239.142C393.396 239.142 389.929 248.718 388.293 251.064C386.657 253.41 387.189 256.848 392.605 258.676C398.02 260.504 419.846 273.784 426.54 272.179C433.233 270.573 437.052 263.893 438.7 257.93C440.348 251.966 436.019 249.78 434.952 244.711C433.884 239.643 431.359 237.464 419.787 238.872C408.215 240.279 393.748 242.038 393.396 239.142Z" fill="#E0B890"/>
<path d="M238.802 237.549C239.715 237.666 240.778 238.071 241.381 239.223C242.587 241.526 241.833 257.392 242.285 256.861C242.737 256.329 246.665 255.571 246.693 255C246.879 251.14 247.86 236.1 251.93 235.171C256.601 234.104 259.615 237.148 260.067 245.665C260.52 254.182 252.382 258.467 252.382 258.467C252.382 258.467 252.382 259.372 251.93 269.404C251.478 279.436 253.588 278.566 256.149 277.465C258.711 276.365 258.711 277.722 255.848 280.433C252.985 283.145 248.765 280.664 246.505 276.986C244.244 273.309 245.902 261.659 245.902 261.659L242.135 263.623C242.135 263.623 242.135 267.846 240.477 274.067C238.819 280.288 234.449 283.966 230.079 282.516C225.709 281.067 223.599 275.151 223.599 268.516C223.599 261.88 234.901 258.4 234.901 258.4C234.901 258.4 234.858 256.052 235.183 246.049C235.507 236.047 237.889 237.431 238.802 237.549V237.549ZM231.586 271.747C230.682 276.429 232.189 278.478 233.394 278.972C234.6 279.465 234.751 266.067 234.751 266.067C234.751 266.067 232.49 267.065 231.586 271.747ZM253.286 253.634C253.286 253.634 259.163 249.291 256.451 240.716C256.451 240.716 253.738 243.904 253.286 253.634Z" fill="#E6E6E6"/>
<path d="M266.853 257.449C265.849 258.396 264.944 260.665 263.739 264.092C262.533 267.52 262.634 272.763 264.543 273.47C266.452 274.176 267.155 273.282 268.561 270.288C269.967 267.295 268.962 257.886 269.063 256.997C269.163 256.108 270.168 255.564 271.775 255.82C273.382 256.076 274.186 257.913 274.186 257.913C274.186 260.627 273.885 269.829 274.99 271.111C276.095 272.392 279.009 265.617 279.009 265.617C279.109 264.728 278.808 260.961 280.516 256.909C282.224 252.858 285.84 251.925 288.05 252.176C290.261 252.427 292.27 253.752 292.27 255.562C292.27 257.372 292.772 259.865 290.26 259.767C287.749 259.669 288.251 256.531 288.251 256.531C287.849 255.764 286.945 254.916 286.342 262.36C285.74 269.805 287.146 270.632 288.552 271.257C289.959 271.883 292.37 268.949 294.58 265.179C296.79 261.409 299.402 252.776 299.402 252.776C299.402 252.776 298.699 238.79 299 234.615C299.302 230.44 301.411 230.173 303.32 230.577C305.229 230.981 307.64 235.185 308.444 239.033C309.248 242.881 305.229 251.29 305.229 251.29C305.731 253.38 306.434 262.44 306.434 262.44C307.941 261.172 310.701 257.039 310.955 254.312C310.955 254.312 310.099 254.027 309.448 252.966C308.644 251.129 310.754 247.343 313.265 247.541C314.82 247.54 317.031 248.595 317.585 251.748C318.236 256.629 311.859 262.901 311.859 262.901C311.859 262.901 311.156 262.488 315.275 263.947C319.394 265.407 323.105 268.303 327.129 269.855C331.154 271.407 334.262 271.292 337.979 270.174C341.696 269.056 343.706 271.789 343.304 273.937C342.902 276.085 340.593 278.557 336.272 278.95C331.95 279.344 325.654 277.031 323.336 275.305C321.017 273.579 318.231 270.529 315.446 268.312C312.661 266.095 309.044 265.067 309.044 265.068C308.542 265.39 306.532 266.679 306.532 266.679C306.532 266.679 306.683 268.765 306.432 270.081C306.532 271.706 305.678 272.323 303.518 273.84C299.751 275.404 299.986 271.753 299.908 271.099C299.658 269.013 299.6 265.275 299.6 265.275C299.6 265.275 296.084 270.546 295.481 271.355C294.878 272.164 292.568 274.712 288.449 274.76C284.33 274.809 281.115 271.583 281.115 271.583C281.115 271.583 279.508 275.047 276.896 275.637C274.284 276.227 270.064 272.439 270.064 272.439C269.26 275.729 267.05 277.79 262.63 276.584C258.209 275.378 257.104 271.382 257.205 267.376C257.305 263.371 259.415 259.283 262.429 256.043C265.443 252.802 268.256 255.16 268.256 255.16C268.865 255.543 267.858 256.504 266.853 257.449V257.449ZM304.925 242.194C304.925 242.194 306.331 237.391 305.327 236.427C304.322 235.463 304.925 242.194 304.925 242.194Z" fill="#E6E6E6"/>
<path d="M245.048 288.367C245.048 288.367 244.847 294.167 248.464 293.536C252.081 292.905 251.88 288.248 250.875 286.077C249.87 283.907 243.642 281.709 241.23 283.336C238.819 284.963 232.993 289.465 232.189 299.19C231.385 308.915 233.193 315.839 238.016 320.829C242.838 325.819 247.459 323.94 249.468 322.249C251.478 320.558 256.099 311.038 256.702 309.525C257.305 308.013 257.104 303.155 253.487 309.416C249.87 315.677 246.856 322.838 244.244 317.195C241.632 311.551 240.426 306.936 240.627 299.93C240.828 292.924 241.833 288.258 243.24 287.678C244.646 287.097 245.048 288.367 245.048 288.367V288.367Z" fill="#E6E6E6"/>
<path d="M267.15 298.519C266.307 298.948 264.471 301.13 263.676 305.944C262.882 310.759 263.886 313.633 265.381 314.591C267.704 315.547 270.164 311.666 270.164 311.666C270.164 311.666 269.36 308.723 268.959 304.437C268.557 300.15 269.561 298.098 270.365 296.618C271.169 295.137 272.575 296.366 273.58 297.33C274.585 298.295 274.585 302.316 274.987 308.211C275.389 314.106 277.398 313.22 277.8 311.675C278.201 310.13 279.356 307.147 280.01 302.777C280.362 300.671 281.367 297.614 282.019 296.26C284.229 292.389 287.846 295.981 287.846 295.981C291.663 287.741 296.888 293.8 296.888 293.8C299.349 288.109 303.267 288.833 306.13 291.853C308.542 294.247 308.542 305.306 309.345 304.831C310.149 304.356 313.163 293.374 313.163 293.374C313.364 291.998 311.757 288.927 312.962 287.913C314.168 286.898 317.985 287.908 317.985 287.908C319.391 283.306 323.611 284.379 326.022 285.366C332.753 287.945 333.154 298.364 331.648 301.945C329.538 308.144 320.597 310.843 320.597 310.843C320.798 311.68 320.597 334.973 320.798 339.83C320.999 344.688 319.392 342.623 316.981 341.234C314.569 339.845 314.77 327.611 314.77 321.78C314.77 315.948 313.766 301.512 313.766 301.512C313.766 301.512 313.364 303.258 311.154 307.732C309.396 310.921 306.281 311.33 304.925 310.964C303.569 310.597 303.117 307.458 302.916 304.41C302.714 301.362 302.313 297.679 301.107 295.275C299.902 292.872 298.315 295.509 298.349 295.994C298.484 297.931 299.426 305.415 299.287 307.504C299.211 308.658 298.833 310.001 298.176 311.028C297.756 311.704 297.003 312.492 296.268 312.945C295.638 313.25 295.298 312.578 295.044 311.31C294.789 310.041 294.62 308.174 294.329 306.09C293.748 301.921 293.648 299.994 292.266 297.488C290.885 294.981 289.522 297.108 289.288 298.956C289.496 301.182 290.447 307.217 290.138 310.403C289.755 314.256 287.804 315.523 286.82 315.181C285.836 314.839 285.761 313.922 285.734 313.404C285.837 310.239 285.151 306.042 284.929 305.11C284.706 304.178 284.382 305.008 284.182 305.861C283.425 309.101 281.617 313.639 278.001 316.533C275.439 317.784 271.37 314.07 271.37 314.07C268.758 321.296 262.579 318.452 261.324 316.895C260.068 315.338 257.958 311.584 258.712 306.024C259.465 300.463 261.927 297.437 263.936 295.997C265.945 294.557 268.758 296.563 268.758 296.563C268.758 296.563 268.356 297.906 267.15 298.519V298.519ZM320.597 306.018C320.597 306.018 325.018 305.917 325.419 300.753C325.821 295.589 325.369 288.328 322.807 288.072C321.249 288.075 319.392 289.74 319.593 294.799C319.793 299.858 320.597 306.018 320.597 306.018V306.018Z" fill="#E6E6E6"/>
<path d="M277.182 418.909C277.182 418.909 273.762 412.107 275.324 403.483C276.887 394.857 280.667 386.69 279.189 381.71C279.189 381.71 285.63 393.199 283.619 396.648C281.608 400.097 286.365 402.702 286.365 402.702C286.365 402.702 289.885 401.594 287.205 390.267C284.526 378.943 281.251 367.291 283.247 358.146C285.244 349.001 289.585 343.793 288.863 339.986C288.863 339.986 295.609 347.473 292.618 354.177C292.618 354.177 294.661 348.089 293.51 330.776C289.635 318.548 296.975 306.888 296.975 306.888C296.975 306.888 296.386 317.879 302.198 325.473C308.01 333.068 305.861 346.498 302.743 351.378C296.506 361.137 299.014 371.047 304.307 376.503C309.6 381.96 334.706 393.524 332.483 407.095C330.26 420.667 328.731 426.654 331.751 431.341C334.772 436.027 282.353 429.324 277.182 418.909V418.909Z" fill="#FF721C"/>
<path d="M300.595 324.349C300.595 324.349 304.403 352.043 312.184 356.198C319.966 360.353 323.435 374.55 323.995 381.612C324.557 388.674 330.275 402.443 336.933 400.666C343.591 398.889 337.497 391.339 333.651 391.558C333.651 391.558 339.839 387.309 343.402 389.706C346.965 392.102 357.281 393.219 350.719 375.002C344.159 356.786 354.565 358.393 350.347 352.537C346.129 346.681 342.378 343.295 339.097 334.188C335.818 325.08 329.816 322.121 335.632 303.604C338.745 292.345 342.11 294.241 337.084 282.558C337.084 282.558 347.071 294.261 344.822 302.883C342.57 311.505 348.191 324.778 351.194 324.207C354.194 323.638 350.07 318.275 352.133 312.763C354.196 307.249 358.229 299.826 357.292 294.882C357.292 294.882 363.649 309.882 366.341 289.312C376.045 306.34 369.291 313.088 374.073 313.717C378.855 314.346 383.263 325.289 384.575 328.112C385.887 330.936 378.851 338.931 387.852 349.514C396.851 360.097 400.793 360.372 399.852 371.818C398.913 383.264 391.407 388.785 400.506 391.667C409.6 394.55 410.068 392.923 406.129 400.842C402.19 408.76 373.121 419.4 379.684 425.325C386.245 431.249 347.429 427.352 336.646 423.765C325.863 420.178 326.803 412.831 315.269 409.386C303.736 405.941 296.425 396.063 297.081 387.229C297.739 378.398 300.122 369.908 296.428 363.283C291 353.543 299.118 339.966 300.595 324.349V324.349Z" fill="#FF8B30"/>
<path d="M395.6 364.774C395.6 364.774 415.419 372.659 410.316 388.508C405.213 404.355 405.738 405.406 411.555 411.28C417.368 417.154 391.572 405.971 394.105 393.657C396.634 381.339 401.778 374.278 395.6 364.774Z" fill="#FF5B2B"/>
<path d="M329.919 383.328C333.3 378.595 334.975 376.418 340.398 382.022C345.82 387.624 340.398 382.022 346.053 376.659C351.713 371.296 353.751 378.101 354.389 379.274C354.389 379.274 352.214 365.646 361.155 365.011C361.155 365.011 363.229 358.311 356.199 354.132C349.168 349.952 342.719 344.343 343.889 339.486C345.062 334.629 337.862 326.094 337.862 326.094C337.862 326.094 337.152 335.272 334.574 339.293C331.996 343.313 330.623 350.43 336.716 356.829C342.807 363.226 336.481 367.794 336.481 367.794C336.481 367.794 335.478 362.436 332.766 359.635C332.766 359.635 333.067 364.576 327.375 370.314C317.682 380.084 320.618 379.22 323.291 382.957C325.266 385.718 326.54 388.059 329.919 383.328V383.328Z" fill="#FFA923"/>
<path d="M373.177 334.503C373.177 334.503 368.365 340.284 366.899 346.406C365.431 352.528 373.37 359.785 367.539 374.038C361.707 388.292 353.292 388.917 353.035 384.097C352.777 379.276 360.401 371.012 354.462 360.453C348.522 349.894 340.029 346.636 340.94 344.516C340.94 344.516 344.53 353.086 344.879 358.377C345.224 363.668 340.848 375.209 336.59 376.992C332.332 378.775 323.262 380.238 323.52 385.059C323.778 389.878 325.024 402.561 337.965 401.564C350.905 400.57 347.35 409.523 354.321 408.199C361.291 406.876 365.391 397.332 371.083 399.659C376.776 401.986 386.985 407.354 397.38 410.25C407.774 413.144 424.607 411.897 424.616 408.486C424.625 405.076 418.804 405.359 419.127 398.329C419.687 386.172 412.547 379.058 404.449 375.31C404.449 375.31 410.412 386.597 404.459 392.185C400.098 396.279 402.024 400.116 407.251 406.915C407.251 406.915 399.467 407.416 395.687 401.319C391.907 395.22 388.224 386.18 389.146 380.649C389.146 380.649 384.132 392.313 382.273 379.033C380.413 365.753 382.779 360.922 379.453 353.762C376.125 346.602 370.254 343.336 373.177 334.503V334.503Z" fill="#FF743F"/>
<path d="M387.485 409.568C387.485 409.568 373.91 401.83 376.265 391.703C378.62 381.574 380.987 390.296 379.086 384.033C379.086 384.033 379.759 395.114 383.98 394.823C383.98 394.823 383.255 398.525 382.896 385.348C382.535 372.172 389.111 361.752 382.527 353.322C382.527 353.322 393.587 355.298 394.027 380.177C394.027 380.177 391.394 388.831 397.952 389.623C404.515 390.413 400.634 396.244 405.376 402.477C410.122 408.709 420.271 413.405 423.71 412.752C423.71 412.751 390.098 418.093 387.485 409.568V409.568Z" fill="#FFAE49"/>
<path d="M302.95 331.206C302.95 331.206 296.314 344.518 305.487 353.386C314.661 362.253 314.837 363.183 314.377 369.537C313.917 375.892 322.167 357.934 315.758 350.472C309.348 343.01 303.822 340.201 302.95 331.206V331.206Z" fill="#FF5B2B"/>
<path d="M313.324 421.405C313.324 421.405 296.938 421.302 300.254 413.776C301.768 410.343 296.141 406.507 300.475 401.339C300.475 401.339 303.12 413.567 307.397 413.13C307.397 413.13 306.475 415.935 306.79 406.099C307.105 396.265 314.284 388.135 308.069 382.171C308.069 382.171 319.138 383.076 318.302 401.659C318.302 401.659 315.195 408.265 321.78 408.52C328.368 408.773 324.146 413.332 328.615 417.748C333.088 422.164 343.096 425.152 346.605 424.486C346.604 424.485 327.38 430.391 313.324 421.405V421.405Z" fill="#FFB642"/>
<path d="M287.232 170.323L270.392 182.394L263.334 185.654C263.334 185.654 238.869 201.059 235.622 202.649C232.375 204.24 211.421 215.707 205.569 219.377C199.716 223.048 174.456 236.829 174.456 236.829L146.103 253.336C146.103 253.336 130.431 261.211 127.26 263.369C124.089 265.526 115.711 271.846 107.407 278.732C102.086 283.144 100.673 284.44 94.3615 287.468C88.6699 291.536 90.0026 295.829 93.4537 295.435C96.0238 294.176 98.4941 292.56 99.9386 291.853C101.562 291.059 118.814 277.777 118.814 277.777L135.801 266.836C135.801 266.836 170.88 248.853 172.917 246.848C174.955 244.843 218.335 219.972 218.335 219.972L254.318 200.136L277.649 184.884L287.232 170.323Z" fill="#7A402D"/>
<path d="M149.897 225.701C149.897 225.701 144.99 232.131 151.118 243.428C157.247 254.725 161.902 267.951 175.043 262.724C188.184 257.496 224.284 242.837 218.571 230.331C212.858 217.825 206.006 196.813 190.26 204.122C174.513 211.431 156.315 221.953 149.897 225.701Z" fill="#E6CDB1"/>
<path d="M211.087 216.33C211.087 216.33 221.213 233.185 219.305 235.718C217.397 238.251 177.733 265.207 170.658 262.741C163.581 260.275 155.457 249.982 155.457 249.982C155.457 249.982 176.486 251.712 181.182 244.821C185.878 237.93 192.353 235.921 200.588 230.261C208.824 224.604 211.087 216.33 211.087 216.33Z" fill="#E0B890"/>
<path d="M217.153 206.859C225.021 222.54 230.32 236.257 246.404 227.171C262.489 218.086 284.466 209.94 277.619 197.585C270.773 185.229 268.037 164.82 250.896 174.626C233.754 184.431 209.285 191.18 217.153 206.859Z" fill="#E6CDB1"/>
<path d="M227.011 218.25C227.011 218.25 233.24 231.716 241.83 228.217C250.417 224.719 276.376 208.884 275.695 205.588C275.013 202.292 272.853 191.844 272.853 191.844C272.853 191.844 263.305 199.56 255.406 199.476C247.509 199.393 246.509 204.185 240.895 208.213C235.28 212.241 224.822 216.7 224.822 216.7L227.011 218.25V218.25Z" fill="#E0B890"/>
<defs>
<radialGradient id="paint0_radial" cx="0" cy="0" r="1" gradientUnits="userSpaceOnUse" gradientTransform="rotate(58.515) scale(603.131)">
<stop stop-color="#FF8C37" stop-opacity="0.54"/>
<stop offset="1" stop-color="#EC3750" stop-opacity="0.54"/>
</radialGradient>
</defs>
</svg>
