<svg width="630" height="630" viewBox="0 0 630 630" fill="none" xmlns="http://www.w3.org/2000/svg">
<path d="M0 0H630V630H0V0Z" fill="url(#paint0_radial)"/>
<path d="M297.549 134.704L249.864 142.801V353.528H297.549V273.804C297.549 250.344 309.99 235.811 320.356 235.811C329.686 235.811 332.381 245.154 332.381 259.271V353.528H380.274V252.421C380.274 220.449 368.249 199.894 336.943 199.894C322.223 199.894 307.917 204.047 297.549 213.389V134.704Z" fill="white"/>
<path d="M249.699 492H226.32V485.812L232.578 482.93V449.672L226.32 446.789V440.602H249.699V446.789L243.441 449.672V482.93L249.699 485.812V492ZM291.781 492H281.059V469.043C281.059 466.207 280.625 464.086 279.758 462.68C278.914 461.25 277.555 460.535 275.68 460.535C274.273 460.535 273.102 460.816 272.164 461.379C271.227 461.941 270.477 462.773 269.914 463.875C269.375 464.977 268.988 466.336 268.754 467.953C268.52 469.57 268.402 471.422 268.402 473.508V492H257.68V452.695H265.871L267.312 457.723H267.91C268.473 456.715 269.152 455.848 269.949 455.121C270.77 454.395 271.66 453.797 272.621 453.328C273.582 452.859 274.602 452.52 275.68 452.309C276.758 452.074 277.859 451.957 278.984 451.957C280.906 451.957 282.652 452.238 284.223 452.801C285.793 453.34 287.141 454.195 288.266 455.367C289.391 456.539 290.258 458.039 290.867 459.867C291.477 461.672 291.781 463.84 291.781 466.371V492ZM314.387 492.703C312.371 492.703 310.531 492.27 308.867 491.402C307.203 490.535 305.773 489.258 304.578 487.57C303.383 485.859 302.445 483.738 301.766 481.207C301.109 478.676 300.781 475.746 300.781 472.418C300.781 469.043 301.109 466.09 301.766 463.559C302.445 461.004 303.395 458.871 304.613 457.16C305.855 455.426 307.332 454.125 309.043 453.258C310.754 452.391 312.641 451.957 314.703 451.957C315.969 451.957 317.129 452.109 318.184 452.414C319.238 452.695 320.188 453.105 321.031 453.645C321.875 454.16 322.625 454.77 323.281 455.473C323.961 456.152 324.559 456.902 325.074 457.723H325.426C325.285 456.809 325.156 455.883 325.039 454.945C324.922 454.148 324.816 453.305 324.723 452.414C324.652 451.5 324.617 450.656 324.617 449.883V437.297H335.34V492H327.148L325.074 486.902H324.617C324.125 487.699 323.562 488.461 322.93 489.188C322.297 489.891 321.559 490.5 320.715 491.016C319.895 491.531 318.957 491.941 317.902 492.246C316.871 492.551 315.699 492.703 314.387 492.703ZM318.289 484.16C319.555 484.16 320.633 483.949 321.523 483.527C322.414 483.082 323.129 482.426 323.668 481.559C324.23 480.668 324.641 479.566 324.898 478.254C325.18 476.941 325.332 475.406 325.355 473.648V472.488C325.355 470.59 325.238 468.902 325.004 467.426C324.77 465.949 324.383 464.719 323.844 463.734C323.305 462.727 322.578 461.965 321.664 461.449C320.75 460.934 319.602 460.676 318.219 460.676C315.969 460.676 314.316 461.695 313.262 463.734C312.207 465.75 311.68 468.691 311.68 472.559C311.68 476.426 312.207 479.332 313.262 481.277C314.34 483.199 316.016 484.16 318.289 484.16ZM346.168 442.535C346.168 441.527 346.32 440.695 346.625 440.039C346.93 439.359 347.34 438.82 347.855 438.422C348.395 438 349.016 437.707 349.719 437.543C350.445 437.379 351.207 437.297 352.004 437.297C352.801 437.297 353.551 437.379 354.254 437.543C354.957 437.707 355.566 438 356.082 438.422C356.621 438.82 357.043 439.359 357.348 440.039C357.676 440.695 357.84 441.527 357.84 442.535C357.84 443.52 357.676 444.352 357.348 445.031C357.043 445.711 356.621 446.262 356.082 446.684C355.566 447.082 354.957 447.375 354.254 447.562C353.551 447.727 352.801 447.809 352.004 447.809C351.207 447.809 350.445 447.727 349.719 447.562C349.016 447.375 348.395 447.082 347.855 446.684C347.34 446.262 346.93 445.711 346.625 445.031C346.32 444.352 346.168 443.52 346.168 442.535ZM357.348 492H346.625V452.695H357.348V492ZM391.449 492L389.375 486.656H389.059C388.285 487.711 387.512 488.625 386.738 489.398C385.965 490.148 385.121 490.77 384.207 491.262C383.293 491.754 382.262 492.117 381.113 492.352C379.988 492.586 378.676 492.703 377.176 492.703C375.582 492.703 374.105 492.457 372.746 491.965C371.387 491.449 370.203 490.688 369.195 489.68C368.211 488.648 367.438 487.359 366.875 485.812C366.312 484.242 366.031 482.391 366.031 480.258C366.031 476.086 367.367 473.016 370.039 471.047C372.711 469.055 376.707 467.953 382.027 467.742L388.285 467.531V464.578C388.285 462.961 387.816 461.766 386.879 460.992C385.941 460.219 384.629 459.832 382.941 459.832C381.254 459.832 379.602 460.078 377.984 460.57C376.391 461.062 374.785 461.719 373.168 462.539L369.688 455.438C371.656 454.336 373.836 453.469 376.227 452.836C378.617 452.203 381.125 451.887 383.75 451.887C388.648 451.887 392.398 453.035 395 455.332C397.625 457.629 398.938 461.121 398.938 465.809V492H391.449ZM388.285 473.789L384.734 473.93C383.305 473.977 382.098 474.164 381.113 474.492C380.129 474.82 379.332 475.266 378.723 475.828C378.137 476.367 377.703 477.023 377.422 477.797C377.164 478.547 377.035 479.391 377.035 480.328C377.035 481.969 377.434 483.141 378.23 483.844C379.027 484.523 380.07 484.863 381.359 484.863C382.344 484.863 383.258 484.699 384.102 484.371C384.945 484.02 385.672 483.516 386.281 482.859C386.914 482.18 387.406 481.359 387.758 480.398C388.109 479.414 388.285 478.289 388.285 477.023V473.789Z" fill="white"/>
<defs>
<radialGradient id="paint0_radial" cx="0" cy="0" r="1" gradientUnits="userSpaceOnUse" gradientTransform="rotate(58.515) scale(603.131)">
<stop stop-color="#FF8C37" stop-opacity="0.54"/>
<stop offset="1" stop-color="#EC3750" stop-opacity="0.54"/>
</radialGradient>
</defs>
</svg>
